<svg xmlns="http://www.w3.org/2000/svg" xmlns:xlink="http://www.w3.org/1999/xlink" width="96" height="96" viewBox="0 0 96 96" fill="none"><g  clip-path="url(#clip-path-AcHGS2rdjWXPp221dDxZN)"><path   fill-rule="evenodd"  fill="url(#linear_fill_Ai4FDJo71nDCbjfbzkTAA_0)"  d="M75.6927 30.39L48.6627 16.16C48.4584 16.0524 48.2337 16 48.0027 16C47.7717 16 47.5471 16.0524 47.3427 16.16L20.3127 30.39C20.0612 30.526 19.8539 30.7259 19.7227 30.98L48.0027 45.87L76.2827 30.99C76.1522 30.7351 75.9449 30.5259 75.6927 30.39M48.0027 45.87L48.0027 80C48.2337 80 48.4583 79.9475 48.6627 79.84L75.6927 65.61C75.922 65.4893 76.1189 65.3118 76.2527 65.09C76.3866 64.8682 76.4527 64.6191 76.4527 64.36L76.4527 31.64C76.4527 31.4097 76.3933 31.192 76.2827 30.99L48.0027 45.87M19.5527 31.64L19.5527 64.36C19.5527 64.6191 19.6189 64.8682 19.7527 65.09C19.8866 65.3118 20.0835 65.4893 20.3127 65.61L47.3427 79.84C47.5471 79.9475 47.7718 80 48.0027 80L48.0027 45.87L19.7227 30.98C19.6127 31.1828 19.5527 31.4093 19.5527 31.64"></path><g filter="url(#filter_ldsCL-18cOjL9QooolJVl)"><foreignObject x="0.59228515625" y="-5" width="94.83001708984375" height="54.800048828125"><div xmlns="http://www.w3.org/1999/xhtml" style="backdrop-filter:blur(6px);clip-path:url(#bgblur_84.83001708984375_44.800048828125_12_clip_path);height:100%;width:100%"></div></foreignObject><path     fill="url(#linear_fill_ldsCL-18cOjL9QooolJVl_0)" fill-opacity="0.20000000298023224" d="M89.5423 21.58L49.0023 0.25C48.6957 0.0885686 48.3588 0 48.0123 0C47.6658 0 47.3189 0.0885686 47.0123 0.25L6.47229 21.58C6.09491 21.784 5.78905 22.0989 5.59229 22.48L48.0123 44.8L90.4223 22.48C90.2265 22.0976 89.9205 21.7839 89.5423 21.58"></path><path fill-rule="evenodd"  fill="url(#linear_border_ldsCL-18cOjL9QooolJVl_0)"  d="M49.0023 0.25L89.5423 21.58C89.613 21.6181 89.6811 21.6601 89.7466 21.7056C90.0179 21.8944 90.2416 22.1447 90.3998 22.4372C90.4074 22.4514 90.4149 22.4656 90.4223 22.48L48.0123 44.8L5.59229 22.48C5.59746 22.47 5.60271 22.46 5.60803 22.4501C5.76733 22.153 5.99354 21.8976 6.26837 21.7058C6.33368 21.6602 6.40173 21.6181 6.47229 21.58L47.0123 0.25C47.3189 0.0885686 47.6658 0 48.0123 0C48.3588 0 48.6957 0.0885686 49.0023 0.25ZM7.32455 22.2615L48.0122 43.67L88.6901 22.2616L48.5367 1.13498L48.5364 1.13482Q48.2803 1 48.0123 1Q47.7342 1 47.4779 1.13498L7.32455 22.2615Z"></path></g><defs><clipPath id="bgblur_84.83001708984375_44.800048828125_12_clip_path" transform="translate(-0.59228515625 5)"><path d="M89.5423 21.58L49.0023 0.25C48.6957 0.0885686 48.3588 0 48.0123 0C47.6658 0 47.3189 0.0885686 47.0123 0.25L6.47229 21.58C6.09491 21.784 5.78905 22.0989 5.59229 22.48L48.0123 44.8L90.4223 22.48C90.2265 22.0976 89.9205 21.7839 89.5423 21.58"><parsererror xmlns="http://www.w3.org/1999/xhtml" style="display: block; white-space: pre; border: 2px solid #c77; padding: 0 1em 0 1em; margin: 1em; background-color: #fdd; color: black"><h3>This page contains the following errors:</h3><div style="font-family:monospace;font-size:12px">error on line 1 at column 345: Extra content at the end of the document
</div><h3>Below is a rendering of the page up to the first error.</h3></parsererror></path></clipPath></defs><g filter="url(#filter_kwiSITXoM8CREsBvA3kbl)"><foreignObject x="43.00048828125" y="17.478515625" width="52.6500244140625" height="83.52001953125"><div xmlns="http://www.w3.org/1999/xhtml" style="backdrop-filter:blur(6px);clip-path:url(#bgblur_42.6500244140625_73.52001953125_12_clip_path);height:100%;width:100%"></div></foreignObject><path     fill="url(#linear_fill_kwiSITXoM8CREsBvA3kbl_0)" fill-opacity="0.20000000298023224" d="M48.0005 95.9985C48.3468 95.9985 48.684 95.9198 48.9905 95.7585L89.5105 74.4185C89.8542 74.2374 90.1498 73.9713 90.3505 73.6385C90.5512 73.3058 90.6505 72.9171 90.6505 72.5285L90.6505 23.4685C90.6505 23.1231 90.5563 22.7816 90.3905 22.4785L48.0005 44.7985L48.0005 95.9985"></path><path fill-rule="evenodd"  fill="url(#linear_border_kwiSITXoM8CREsBvA3kbl_0)"  d="M48.0005 94.9985L48.0005 44.7985L90.3905 22.4785C90.4017 22.499 90.4126 22.5198 90.4232 22.5406C90.5686 22.8279 90.6505 23.1465 90.6505 23.4685L90.6505 72.5285C90.6505 72.9171 90.5512 73.3058 90.3505 73.6385C90.1498 73.9713 89.8542 74.2374 89.5105 74.4185L49.0005 95.7533L48.9905 95.7585C48.684 95.9198 48.3468 95.9985 48.0005 95.9985L48.0005 94.9985ZM49.0005 94.623L89.0444 73.5338Q89.3397 73.3782 89.4942 73.122Q89.6505 72.8629 89.6505 72.5285L89.6505 23.9983L49.0005 45.4021L49.0005 94.623Z"></path></g><defs><clipPath id="bgblur_42.6500244140625_73.52001953125_12_clip_path" transform="translate(-43.00048828125 -17.478515625)"><path d="M48.0005 95.9985C48.3468 95.9985 48.684 95.9198 48.9905 95.7585L89.5105 74.4185C89.8542 74.2374 90.1498 73.9713 90.3505 73.6385C90.5512 73.3058 90.6505 72.9171 90.6505 72.5285L90.6505 23.4685C90.6505 23.1231 90.5563 22.7816 90.3905 22.4785L48.0005 44.7985L48.0005 95.9985"><parsererror xmlns="http://www.w3.org/1999/xhtml" style="display: block; white-space: pre; border: 2px solid #c77; padding: 0 1em 0 1em; margin: 1em; background-color: #fdd; color: black"><h3>This page contains the following errors:</h3><div style="font-family:monospace;font-size:12px">error on line 1 at column 378: Extra content at the end of the document
</div><h3>Below is a rendering of the page up to the first error.</h3></parsererror></path></clipPath></defs><g filter="url(#filter_P36de6FKO5aw1CcPAutsc)"><foreignObject x="0.333984375" y="17.4765625" width="52.6500244140625" height="83.530029296875"><div xmlns="http://www.w3.org/1999/xhtml" style="backdrop-filter:blur(6px);clip-path:url(#bgblur_42.6500244140625_73.530029296875_12_clip_path);height:100%;width:100%"></div></foreignObject><path     fill="url(#linear_fill_P36de6FKO5aw1CcPAutsc_0)" fill-opacity="0.20000000298023224" d="M5.33398 23.4666L5.33398 72.5366C5.33398 72.9252 5.44328 73.3038 5.64398 73.6366C5.84469 73.9693 6.13026 74.2455 6.47398 74.4266L46.994 95.7566C47.3004 95.9178 47.6377 96.0066 47.984 96.0066L47.984 44.7966L5.59398 22.4766C5.42899 22.7807 5.33398 23.1205 5.33398 23.4666"></path><path fill-rule="evenodd"  fill="url(#linear_border_P36de6FKO5aw1CcPAutsc_0)"  d="M5.59398 22.4766L47.984 44.7966L47.984 96.0066C47.6377 96.0066 47.3004 95.9178 46.994 95.7566L46.984 95.7513L6.47398 74.4266C6.13026 74.2455 5.84469 73.9693 5.64398 73.6366C5.44328 73.3038 5.33398 72.9252 5.33398 72.5366L5.33398 23.4666C5.33398 23.1394 5.4189 22.8178 5.56761 22.5267C5.57619 22.5099 5.58498 22.4932 5.59398 22.4766ZM46.984 94.6212L46.984 45.4002L6.33398 23.9964L6.33398 72.5366Q6.33398 72.8444 6.50028 73.1201Q6.6683 73.3986 6.94011 73.5418L46.984 94.6212Z"></path></g><defs><clipPath id="bgblur_42.6500244140625_73.530029296875_12_clip_path" transform="translate(-0.333984375 -17.4765625)"><path d="M5.33398 23.4666L5.33398 72.5366C5.33398 72.9252 5.44328 73.3038 5.64398 73.6366C5.84469 73.9693 6.13026 74.2455 6.47398 74.4266L46.994 95.7566C47.3004 95.9178 47.6377 96.0066 47.984 96.0066L47.984 44.7966L5.59398 22.4766C5.42899 22.7807 5.33398 23.1205 5.33398 23.4666"><parsererror xmlns="http://www.w3.org/1999/xhtml" style="display: block; white-space: pre; border: 2px solid #c77; padding: 0 1em 0 1em; margin: 1em; background-color: #fdd; color: black"><h3>This page contains the following errors:</h3><div style="font-family:monospace;font-size:12px">error on line 1 at column 376: Extra content at the end of the document
</div><h3>Below is a rendering of the page up to the first error.</h3></parsererror></path></clipPath></defs></g><defs><clipPath id="clip-path-AcHGS2rdjWXPp221dDxZN"><path d="M0 96L96 96L96 0L0 0L0 96Z" fill="white"/></clipPath><linearGradient id="linear_fill_Ai4FDJo71nDCbjfbzkTAA_0" x1="19.552734375" y1="16" x2="76.443359375" y2="80" gradientUnits="userSpaceOnUse"><stop offset="0" stop-color="#75A5FF"  /><stop offset="0.703125" stop-color="#2339FF"  /></linearGradient><linearGradient id="linear_fill_ldsCL-18cOjL9QooolJVl_0" x1="5.59228515625" y1="0" x2="90.408935546875" y2="44.80029296875" gradientUnits="userSpaceOnUse"><stop offset="0" stop-color="#83E9FF"  /><stop offset="0.453125" stop-color="#85A0FF"  /></linearGradient><linearGradient id="linear_border_ldsCL-18cOjL9QooolJVl_0" x1="8.2427978515625" y1="2.036376953125" x2="90.408935546875" y2="2.036376953125" gradientUnits="userSpaceOnUse"><stop offset="0" stop-color="#3CDEB6"  /><stop offset="0.65625" stop-color="#364AFF"  /></linearGradient><filter id="filter_ldsCL-18cOjL9QooolJVl" x="5.59228515625" y="0" width="84.83001708984375" height="44.800048828125" filterUnits="userSpaceOnUse" color-interpolation-filters="sRGB"><feFlood flood-opacity="0" result="feFloodId_ldsCL-18cOjL9QooolJVl"/><feBlend mode="normal" in="SourceGraphic" in2="feFloodId_ldsCL-18cOjL9QooolJVl" result="shape_ldsCL-18cOjL9QooolJVl"/><feColorMatrix in="SourceAlpha" type="matrix" values="0 0 0 0 0 0 0 0 0 0 0 0 0 0 0 0 0 0 127 0" result="hardAlpha_ldsCL-18cOjL9QooolJVl"/><feOffset dx="0" dy="2"/><feGaussianBlur stdDeviation="4"/><feComposite in2="hardAlpha_ldsCL-18cOjL9QooolJVl" operator="arithmetic" k2="-1" k3="1"/><feColorMatrix type="matrix" values="0 0 0 0 1 0 0 0 0 1 0 0 0 0 1 0 0 0 0.4 0"/><feBlend mode="normal" in2="shape_ldsCL-18cOjL9QooolJVl" result="innerShadow_0_ldsCL-18cOjL9QooolJVl" /></filter><linearGradient id="linear_fill_kwiSITXoM8CREsBvA3kbl_0" x1="48.00048828125" y1="22.478515625" x2="90.66693115234375" y2="95.999267578125" gradientUnits="userSpaceOnUse"><stop offset="0" stop-color="#83E9FF"  /><stop offset="0.453125" stop-color="#85A0FF"  /></linearGradient><linearGradient id="linear_border_kwiSITXoM8CREsBvA3kbl_0" x1="49.33380126953125" y1="25.8203125" x2="90.66693115234375" y2="25.8203125" gradientUnits="userSpaceOnUse"><stop offset="0" stop-color="#3CDEB6"  /><stop offset="0.65625" stop-color="#364AFF"  /></linearGradient><filter id="filter_kwiSITXoM8CREsBvA3kbl" x="48.00048828125" y="22.478515625" width="42.6500244140625" height="73.52001953125" filterUnits="userSpaceOnUse" color-interpolation-filters="sRGB"><feFlood flood-opacity="0" result="feFloodId_kwiSITXoM8CREsBvA3kbl"/><feBlend mode="normal" in="SourceGraphic" in2="feFloodId_kwiSITXoM8CREsBvA3kbl" result="shape_kwiSITXoM8CREsBvA3kbl"/><feColorMatrix in="SourceAlpha" type="matrix" values="0 0 0 0 0 0 0 0 0 0 0 0 0 0 0 0 0 0 127 0" result="hardAlpha_kwiSITXoM8CREsBvA3kbl"/><feOffset dx="0" dy="2"/><feGaussianBlur stdDeviation="4"/><feComposite in2="hardAlpha_kwiSITXoM8CREsBvA3kbl" operator="arithmetic" k2="-1" k3="1"/><feColorMatrix type="matrix" values="0 0 0 0 1 0 0 0 0 1 0 0 0 0 1 0 0 0 0.4 0"/><feBlend mode="normal" in2="shape_kwiSITXoM8CREsBvA3kbl" result="innerShadow_0_kwiSITXoM8CREsBvA3kbl" /></filter><linearGradient id="linear_fill_P36de6FKO5aw1CcPAutsc_0" x1="5.333984375" y1="22.4765625" x2="48.00042724609375" y2="95.9993896484375" gradientUnits="userSpaceOnUse"><stop offset="0" stop-color="#83E9FF"  /><stop offset="0.453125" stop-color="#85A0FF"  /></linearGradient><linearGradient id="linear_border_P36de6FKO5aw1CcPAutsc_0" x1="6.66729736328125" y1="25.8184814453125" x2="48.00042724609375" y2="25.8184814453125" gradientUnits="userSpaceOnUse"><stop offset="0" stop-color="#3CDEB6"  /><stop offset="0.65625" stop-color="#364AFF"  /></linearGradient><filter id="filter_P36de6FKO5aw1CcPAutsc" x="5.333984375" y="22.4765625" width="42.6500244140625" height="73.530029296875" filterUnits="userSpaceOnUse" color-interpolation-filters="sRGB"><feFlood flood-opacity="0" result="feFloodId_P36de6FKO5aw1CcPAutsc"/><feBlend mode="normal" in="SourceGraphic" in2="feFloodId_P36de6FKO5aw1CcPAutsc" result="shape_P36de6FKO5aw1CcPAutsc"/><feColorMatrix in="SourceAlpha" type="matrix" values="0 0 0 0 0 0 0 0 0 0 0 0 0 0 0 0 0 0 127 0" result="hardAlpha_P36de6FKO5aw1CcPAutsc"/><feOffset dx="0" dy="2"/><feGaussianBlur stdDeviation="4"/><feComposite in2="hardAlpha_P36de6FKO5aw1CcPAutsc" operator="arithmetic" k2="-1" k3="1"/><feColorMatrix type="matrix" values="0 0 0 0 1 0 0 0 0 1 0 0 0 0 1 0 0 0 0.4 0"/><feBlend mode="normal" in2="shape_P36de6FKO5aw1CcPAutsc" result="innerShadow_0_P36de6FKO5aw1CcPAutsc" /></filter></defs></svg>